<svg width="40" height="40" viewBox="0 0 40 40" fill="none" xmlns="http://www.w3.org/2000/svg">
<path d="M25.6836 17.2797L20.9054 10.1697C20.8034 10.0261 20.6675 9.90959 20.5097 9.83024C20.3518 9.75089 20.1768 9.71115 20 9.71449C19.6509 9.71449 19.3018 9.86623 19.0945 10.1805L14.3163 17.2797H9.09086C8.49086 17.2797 7.99995 17.7674 7.99995 18.3635C7.99995 18.4611 8.01086 18.5586 8.04359 18.6561L10.8145 28.7033C11.0654 29.6137 11.9054 30.2857 12.909 30.2857H27.0909C28.0945 30.2857 28.9345 29.6137 29.1963 28.7033L31.9672 18.6561L32 18.3635C32 17.7674 31.509 17.2797 30.909 17.2797H25.6836ZM16.7272 17.2797L20 12.5108L23.2727 17.2797H16.7272ZM20 25.9504C18.8 25.9504 17.8181 24.9749 17.8181 23.7827C17.8181 22.5905 18.8 21.615 20 21.615C21.2 21.615 22.1818 22.5905 22.1818 23.7827C22.1818 24.9749 21.2 25.9504 20 25.9504Z" fill="white"/>
</svg>
